SplineFontDB: 3.2
FontName: Untitled2
FullName: Untitled2
FamilyName: Untitled2
Weight: Regular
Copyright: Copyright (c) 2021, sergei
UComments: "2021-7-9: Created with FontForge (http://fontforge.org)"
Version: 001.000
ItalicAngle: 0
UnderlinePosition: -102
UnderlineWidth: 51
Ascent: 819
Descent: 205
InvalidEm: 0
LayerCount: 2
Layer: 0 0 "Back" 1
Layer: 1 0 "Fore" 0
XUID: [1021 386 1253518015 14269954]
StyleMap: 0x0000
FSType: 0
OS2Version: 0
OS2_WeightWidthSlopeOnly: 0
OS2_UseTypoMetrics: 1
CreationTime: 1625798303
ModificationTime: 1627004033
OS2TypoAscent: 0
OS2TypoAOffset: 1
OS2TypoDescent: 0
OS2TypoDOffset: 1
OS2TypoLinegap: 92
OS2WinAscent: 0
OS2WinAOffset: 1
OS2WinDescent: 0
OS2WinDOffset: 1
HheadAscent: 0
HheadAOffset: 1
HheadDescent: 0
HheadDOffset: 1
OS2Vendor: 'PfEd'
MarkAttachClasses: 1
DEI: 91125
Encoding: ISO8859-1
UnicodeInterp: none
NameList: AGL For New Fonts
DisplaySize: -48
AntiAlias: 1
FitToEm: 0
WinInfo: 0 38 13
BeginPrivate: 1
BlueValues 15 [-20 0 701 701]
EndPrivate
Grid
-1024 -80 m 0
 2048 -80 l 1024
  Named: "t2"
-1024 46 m 0
 2048 46 l 1024
  Named: "t1"
-1024 158 m 0
 2048 158 l 1024
  Named: "5"
-1024 272 m 0
 2048 272 l 1024
  Named: "4"
-1024 384 m 0
 2048 384 l 1024
  Named: "3"
-1024 494 m 0
 2048 494 l 1024
  Named: "2"
-1024 700 m 0
 2048 700 l 1024
  Named: "0"
-1024 600 m 0
 2048 600 l 1024
  Named: "1"
669.416992188 1331 m 4
 669.416992188 -717 l 1028
  Named: "full"
517.440429688 1334 m 0
 517.440429688 -714 l 1024
  Named: "half"
364 1331 m 0
 364 -717 l 1024
EndSplineSet
AnchorClass2: "123""" 
BeginChars: 256 35

StartChar: A
Encoding: 65 65 0
Width: 1024
VWidth: 0
Flags: HW
HStem: 284 46<502.821 550.925>
VStem: 503 48<284.065 329.935>
LayerCount: 2
Fore
SplineSet
463 307 m 0
 463 334.993469473 486.437184795 355 512 355 c 0
 537.563644356 355 561 334.99254778 561 307 c 0
 561 279.006530527 537.562815205 259 512 259 c 0
 486.436355644 259 463 279.00745222 463 307 c 0
EndSplineSet
EndChar

StartChar: B
Encoding: 66 66 1
Width: 1024
VWidth: 0
Flags: HW
LayerCount: 2
Fore
SplineSet
430 725 m 2
 440 725 l 2
 455.132537856 725 465 710.729904333 465 700 c 2
 465 185.510681615 l 1
 602.543576577 135.494835587 l 2
 612.317126752 131.940817342 619 122.391922869 619 112 c 2
 619 102 l 2
 619 85.5057981227 602.196085982 72.4180143914 585.456423423 78.5051644128 c 2
 465 122.307500203 l 1
 465 46 l 2
 465 30.8674621445 450.729904333 21 440 21 c 2
 430 21 l 2
 414.867462144 21 405 35.2700956673 405 46 c 2
 405 700 l 2
 405 715.132537856 419.270095667 725 430 725 c 2
EndSplineSet
EndChar

StartChar: Z
Encoding: 90 90 2
Width: 1024
VWidth: 0
Flags: HW
LayerCount: 2
Fore
SplineSet
354 725 m 2
 364 725 l 2
 379.132537856 725 389 710.729904333 389 700 c 2
 389 411.364832989 l 1
 525.727725579 360.427052871 l 2
 535.463774634 356.799897341 542 347.167935523 542 337 c 2
 542 327 l 2
 542 310.430571082 525.04759944 297.32331624 508.272274421 303.572947129 c 2
 389 348.007716031 l 1
 389 299.344972198 l 1
 677.752838431 191.417681768 l 2
 687.483554949 187.78062707 694 178.1375266 694 168 c 2
 694 158 l 2
 694 141.420242201 677.027220577 128.310427324 660.247161569 134.582318232 c 2
 389 235.966503212 l 1
 389 185.451953667 l 1
 677.617669366 79.4677603257 l 2
 687.376470706 75.8842004894 694 66.3015885078 694 56 c 2
 694 46 l 2
 694 29.4756389684 677.136543182 16.3798730996 660.382330634 22.5322396743 c 2
 389 122.187390596 l 1
 389 62.7423181042 l 1
 679.518745131 -56.8830475381 l 2
 705.180616572 -67.4497004843 694.70910733 -105 670 -105 c 2
 490.924198895 -105 l 1
 678.480585437 -181.867371533 l 2
 704.153085482 -192.388887946 693.777955134 -230 669 -230 c 2
 354 -230 l 2
 338.867462144 -230 329 -215.729904333 329 -205 c 0
 329 96.6666666667 329 398.333333333 329 700 c 0
 329 715.132537856 343.270095667 725 354 725 c 2
EndSplineSet
EndChar

StartChar: M
Encoding: 77 77 3
Width: 1024
VWidth: 0
Flags: HW
LayerCount: 2
Fore
SplineSet
354 725 m 2
 364 725 l 2
 379.132537856 725 389 710.729904333 389 700 c 2
 389 185.471628061 l 1
 678.592838924 79.4768634879 l 2
 688.3566341 75.9031868223 695 66.3318300066 695 56 c 2
 695 46 l 2
 695 29.4857623923 678.156527759 16.3926493601 661.407161076 22.5231365121 c 2
 389 122.227718344 l 1
 389 62.7423181042 l 1
 679.518745131 -56.8830475381 l 2
 705.180616572 -67.4497004843 694.70910733 -105 670 -105 c 2
 354 -105 l 2
 338.867462144 -105 329 -90.7299043327 329 -80 c 2
 329 700 l 2
 329 715.132537856 343.270095667 725 354 725 c 2
EndSplineSet
EndChar

StartChar: Y
Encoding: 89 89 4
Width: 1024
VWidth: 0
Flags: HW
LayerCount: 2
Fore
SplineSet
354 725 m 2
 364 725 l 2
 379.132537856 725 389 710.729904333 389 700 c 2
 389 299.344972198 l 1
 677.752838431 191.417681768 l 2
 687.483554949 187.78062707 694 178.1375266 694 168 c 2
 694 158 l 2
 694 141.420242201 677.027220577 128.310427324 660.247161569 134.582318232 c 2
 389 235.966503212 l 1
 389 185.451953667 l 1
 677.617669366 79.4677603257 l 2
 687.376470706 75.8842004894 694 66.3015885078 694 56 c 2
 694 46 l 2
 694 29.4756389684 677.136543182 16.3798730996 660.382330634 22.5322396743 c 2
 389 122.187390596 l 1
 389 62.7423181042 l 1
 679.518745131 -56.8830475381 l 2
 705.180616572 -67.4497004843 694.70910733 -105 670 -105 c 2
 490.924198895 -105 l 1
 678.480585437 -181.867371533 l 2
 704.153085482 -192.388887946 693.777955134 -230 669 -230 c 2
 354 -230 l 2
 338.867462144 -230 329 -215.729904333 329 -205 c 0
 329 96.6666666667 329 398.333333333 329 700 c 0
 329 715.132537856 343.270095667 725 354 725 c 2
EndSplineSet
EndChar

StartChar: X
Encoding: 88 88 5
Width: 1024
VWidth: 0
Flags: HW
LayerCount: 2
Fore
SplineSet
354 725 m 2
 364 725 l 2
 379.132537856 725 389 710.729904333 389 700 c 2
 389 299.364832989 l 1
 525.727725579 248.427052871 l 2
 535.463774634 244.799897341 542 235.167935523 542 225 c 2
 542 215 l 2
 542 198.430571082 525.04759944 185.32331624 508.272274421 191.572947129 c 2
 389 236.007716031 l 1
 389 185.451953667 l 1
 677.617669366 79.4677603257 l 2
 687.376470706 75.8842004894 694 66.3015885078 694 56 c 2
 694 46 l 2
 694 29.4756389684 677.136543182 16.3798730996 660.382330634 22.5322396743 c 2
 389 122.187390596 l 1
 389 62.7423181042 l 1
 679.518745131 -56.8830475381 l 2
 705.180616572 -67.4497004843 694.70910733 -105 670 -105 c 2
 490.924198895 -105 l 1
 678.480585437 -181.867371533 l 2
 704.153085482 -192.388887946 693.777955134 -230 669 -230 c 2
 354 -230 l 2
 338.867462144 -230 329 -215.729904333 329 -205 c 0
 329 96.6666666667 329 398.333333333 329 700 c 0
 329 715.132537856 343.270095667 725 354 725 c 2
EndSplineSet
EndChar

StartChar: W
Encoding: 87 87 6
Width: 1024
VWidth: 0
Flags: HW
LayerCount: 2
Fore
SplineSet
354 725 m 2
 364 725 l 2
 379.132537856 725 389 710.729904333 389 700 c 2
 389 185.451953667 l 1
 677.617669366 79.4677603257 l 2
 687.376470706 75.8842004894 694 66.3015885078 694 56 c 2
 694 46 l 2
 694 29.4756389684 677.136543182 16.3798730996 660.382330634 22.5322396743 c 2
 389 122.187390596 l 1
 389 62.7423181042 l 1
 679.518745131 -56.8830475381 l 2
 705.180616572 -67.4497004843 694.70910733 -105 670 -105 c 2
 490.924198895 -105 l 1
 678.480585437 -181.867371533 l 2
 704.153085482 -192.388887946 693.777955134 -230 669 -230 c 2
 354 -230 l 2
 338.867462144 -230 329 -215.729904333 329 -205 c 0
 329 96.6666666667 329 398.333333333 329 700 c 0
 329 715.132537856 343.270095667 725 354 725 c 2
EndSplineSet
EndChar

StartChar: V
Encoding: 86 86 7
Width: 1024
VWidth: 0
Flags: HW
LayerCount: 2
Fore
SplineSet
354 725 m 2
 364 725 l 2
 379.132537856 725 389 710.729904333 389 700 c 2
 389 185.471628061 l 1
 525.592838924 135.476863488 l 2
 535.3566341 131.903186822 542 122.331830007 542 112 c 2
 542 102 l 2
 542 85.4857623923 525.156527759 72.3926493601 508.407161076 78.5231365121 c 2
 389 122.227718344 l 1
 389 62.7423181042 l 1
 679.518745131 -56.8830475381 l 2
 705.180616572 -67.4497004843 694.70910733 -105 670 -105 c 2
 490.924198895 -105 l 1
 678.480585437 -181.867371533 l 2
 704.153085482 -192.388887946 693.777955134 -230 669 -230 c 2
 354 -230 l 2
 338.867462144 -230 329 -215.729904333 329 -205 c 0
 329 96.6666666667 329 398.333333333 329 700 c 0
 329 715.132537856 343.270095667 725 354 725 c 2
EndSplineSet
EndChar

StartChar: U
Encoding: 85 85 8
Width: 1024
VWidth: 0
Flags: HW
LayerCount: 2
Fore
SplineSet
354 725 m 2
 364 725 l 2
 379.132537856 725 389 710.729904333 389 700 c 2
 389 62.7423181042 l 1
 679.518745131 -56.8830475381 l 2
 705.180616572 -67.4497004843 694.70910733 -105 670 -105 c 2
 490.924198895 -105 l 1
 678.480585437 -181.867371533 l 2
 704.153085482 -192.388887946 693.777955134 -230 669 -230 c 2
 354 -230 l 2
 338.867462144 -230 329 -215.729904333 329 -205 c 0
 329 96.6666666667 329 398.333333333 329 700 c 0
 329 715.132537856 343.270095667 725 354 725 c 2
EndSplineSet
EndChar

StartChar: T
Encoding: 84 84 9
Width: 1024
VWidth: 0
Flags: HW
LayerCount: 2
Fore
SplineSet
354 725 m 2
 364 725 l 2
 379.132537856 725 389 710.729904333 389 700 c 2
 389 627.579307548 l 1
 525.4570959 578.52610314 l 2
 535.865010118 574.784696068 542 563.813450058 542 555 c 2
 542 545 l 2
 542 528.540814655 525.265240334 515.462599521 508.5429041 521.47389686 c 2
 389 564.446836243 l 1
 389 521.579307548 l 1
 678.4570959 417.52610314 l 2
 688.865010118 413.784696068 695 402.813450058 695 394 c 2
 695 384 l 2
 695 367.540814655 678.265240334 354.462599521 661.5429041 360.47389686 c 2
 389 458.446836243 l 1
 389 411.471628061 l 1
 678.592838924 305.476863488 l 2
 688.3566341 301.903186822 695 292.331830007 695 282 c 2
 695 272 l 2
 695 255.485762392 678.156527759 242.39264936 661.407161076 248.523136512 c 2
 389 348.227718344 l 1
 389 299.364832989 l 1
 678.727725579 191.427052871 l 2
 688.463774634 187.799897341 695 178.167935523 695 168 c 2
 695 158 l 2
 695 141.430571082 678.04759944 128.32331624 661.272274421 134.572947129 c 2
 389 236.007716031 l 1
 389 185.471628061 l 1
 678.592838924 79.4768634879 l 2
 688.3566341 75.9031868223 695 66.3318300066 695 56 c 2
 695 46 l 2
 695 29.4857623923 678.156527759 16.3926493601 661.407161076 22.5231365121 c 2
 389 122.227718344 l 1
 389 62.7423181042 l 1
 679.518745131 -56.8830475381 l 2
 705.180616572 -67.4497004843 694.70910733 -105 670 -105 c 2
 354 -105 l 2
 338.867462144 -105 329 -90.7299043327 329 -80 c 2
 329 700 l 2
 329 715.132537856 343.270095667 725 354 725 c 2
EndSplineSet
EndChar

StartChar: S
Encoding: 83 83 10
Width: 1024
VWidth: 0
Flags: HW
LayerCount: 2
Fore
SplineSet
354 725 m 2
 364 725 l 2
 379.132537856 725 389 710.729904333 389 700 c 2
 389 521.579307548 l 1
 678.4570959 417.52610314 l 2
 688.865010118 413.784696068 695 402.813450058 695 394 c 2
 695 384 l 2
 695 367.540814655 678.265240334 354.462599521 661.5429041 360.47389686 c 2
 389 458.446836243 l 1
 389 411.471628061 l 1
 678.592838924 305.476863488 l 2
 688.3566341 301.903186822 695 292.331830007 695 282 c 2
 695 272 l 2
 695 255.485762392 678.156527759 242.39264936 661.407161076 248.523136512 c 2
 389 348.227718344 l 1
 389 299.364832989 l 1
 678.727725579 191.427052871 l 2
 688.463774634 187.799897341 695 178.167935523 695 168 c 2
 695 158 l 2
 695 141.430571082 678.04759944 128.32331624 661.272274421 134.572947129 c 2
 389 236.007716031 l 1
 389 185.471628061 l 1
 678.592838924 79.4768634879 l 2
 688.3566341 75.9031868223 695 66.3318300066 695 56 c 2
 695 46 l 2
 695 29.4857623923 678.156527759 16.3926493601 661.407161076 22.5231365121 c 2
 389 122.227718344 l 1
 389 62.7423181042 l 1
 679.518745131 -56.8830475381 l 2
 705.180616572 -67.4497004843 694.70910733 -105 670 -105 c 2
 354 -105 l 2
 338.867462144 -105 329 -90.7299043327 329 -80 c 2
 329 700 l 2
 329 715.132537856 343.270095667 725 354 725 c 2
EndSplineSet
EndChar

StartChar: R
Encoding: 82 82 11
Width: 1024
VWidth: 0
Flags: HW
LayerCount: 2
Fore
SplineSet
354 725 m 2
 364 725 l 2
 379.132537856 725 389 710.729904333 389 700 c 2
 389 521.617979906 l 1
 526.408409925 472.54354779 l 2
 536.828455385 468.822102983 543 457.872741814 543 449 c 2
 543 439 l 2
 543 422.560440172 526.304008823 409.487731229 509.591590075 415.45645221 c 2
 389 458.524877237 l 1
 389 411.471628061 l 1
 678.592838924 305.476863488 l 2
 688.3566341 301.903186822 695 292.331830007 695 282 c 2
 695 272 l 2
 695 255.485762392 678.156527759 242.39264936 661.407161076 248.523136512 c 2
 389 348.227718344 l 1
 389 299.364832989 l 1
 678.727725579 191.427052871 l 2
 688.463774634 187.799897341 695 178.167935523 695 168 c 2
 695 158 l 2
 695 141.430571082 678.04759944 128.32331624 661.272274421 134.572947129 c 2
 389 236.007716031 l 1
 389 185.471628061 l 1
 678.592838924 79.4768634879 l 2
 688.3566341 75.9031868223 695 66.3318300066 695 56 c 2
 695 46 l 2
 695 29.4857623923 678.156527759 16.3926493601 661.407161076 22.5231365121 c 2
 389 122.227718344 l 1
 389 62.7423181042 l 1
 679.518745131 -56.8830475381 l 2
 705.180616572 -67.4497004843 694.70910733 -105 670 -105 c 2
 354 -105 l 2
 338.867462144 -105 329 -90.7299043327 329 -80 c 2
 329 700 l 2
 329 715.132537856 343.270095667 725 354 725 c 2
EndSplineSet
EndChar

StartChar: Q
Encoding: 81 81 12
Width: 1024
VWidth: 0
Flags: HW
LayerCount: 2
Fore
SplineSet
354 725 m 2
 364 725 l 2
 379.132537856 725 389 710.729904333 389 700 c 2
 389 411.471628061 l 1
 678.592838924 305.476863488 l 2
 688.3566341 301.903186822 695 292.331830007 695 282 c 2
 695 272 l 2
 695 255.485762392 678.156527759 242.39264936 661.407161076 248.523136512 c 2
 389 348.227718344 l 1
 389 299.364832989 l 1
 678.727725579 191.427052871 l 2
 688.463774634 187.799897341 695 178.167935523 695 168 c 2
 695 158 l 2
 695 141.430571082 678.04759944 128.32331624 661.272274421 134.572947129 c 2
 389 236.007716031 l 1
 389 185.471628061 l 1
 678.592838924 79.4768634879 l 2
 688.3566341 75.9031868223 695 66.3318300066 695 56 c 2
 695 46 l 2
 695 29.4857623923 678.156527759 16.3926493601 661.407161076 22.5231365121 c 2
 389 122.227718344 l 1
 389 62.7423181042 l 1
 679.518745131 -56.8830475381 l 2
 705.180616572 -67.4497004843 694.70910733 -105 670 -105 c 2
 354 -105 l 2
 338.867462144 -105 329 -90.7299043327 329 -80 c 2
 329 700 l 2
 329 715.132537856 343.270095667 725 354 725 c 2
EndSplineSet
EndChar

StartChar: P
Encoding: 80 80 13
Width: 1024
VWidth: 0
Flags: HW
LayerCount: 2
Fore
SplineSet
354 725 m 2
 364 725 l 2
 379.132537856 725 389 710.729904333 389 700 c 2
 389 411.404258296 l 1
 526.677900216 360.44555497 l 2
 536.424374565 356.838093685 543 347.228365658 543 337 c 2
 543 327 l 2
 543 310.451014475 526.087940517 297.348906577 509.322099784 303.55444503 c 2
 389 348.089248197 l 1
 389 299.364832989 l 1
 678.727725579 191.427052871 l 2
 688.463774634 187.799897341 695 178.167935523 695 168 c 2
 695 158 l 2
 695 141.430571082 678.04759944 128.32331624 661.272274421 134.572947129 c 2
 389 236.007716031 l 1
 389 185.471628061 l 1
 678.592838924 79.4768634879 l 2
 688.3566341 75.9031868223 695 66.3318300066 695 56 c 2
 695 46 l 2
 695 29.4857623923 678.156527759 16.3926493601 661.407161076 22.5231365121 c 2
 389 122.227718344 l 1
 389 62.7423181042 l 1
 679.518745131 -56.8830475381 l 2
 705.180616572 -67.4497004843 694.70910733 -105 670 -105 c 2
 354 -105 l 2
 338.867462144 -105 329 -90.7299043327 329 -80 c 2
 329 700 l 2
 329 715.132537856 343.270095667 725 354 725 c 2
EndSplineSet
EndChar

StartChar: O
Encoding: 79 79 14
Width: 1024
VWidth: 0
Flags: HW
LayerCount: 2
Fore
SplineSet
354 725 m 2
 364 725 l 2
 379.132537856 725 389 710.729904333 389 700 c 2
 389 299.364832989 l 1
 678.727725579 191.427052871 l 2
 688.463774634 187.799897341 695 178.167935523 695 168 c 2
 695 158 l 2
 695 141.430571082 678.04759944 128.32331624 661.272274421 134.572947129 c 2
 389 236.007716031 l 1
 389 185.471628061 l 1
 678.592838924 79.4768634879 l 2
 688.3566341 75.9031868223 695 66.3318300066 695 56 c 2
 695 46 l 2
 695 29.4857623923 678.156527759 16.3926493601 661.407161076 22.5231365121 c 2
 389 122.227718344 l 1
 389 62.7423181042 l 1
 679.518745131 -56.8830475381 l 2
 705.180616572 -67.4497004843 694.70910733 -105 670 -105 c 2
 354 -105 l 2
 338.867462144 -105 329 -90.7299043327 329 -80 c 2
 329 700 l 2
 329 715.132537856 343.270095667 725 354 725 c 2
EndSplineSet
EndChar

StartChar: N
Encoding: 78 78 15
Width: 1024
VWidth: 0
Flags: HW
LayerCount: 2
Fore
SplineSet
354 725 m 2
 364 725 l 2
 379.132537856 725 389 710.729904333 389 700 c 2
 389 299.404258296 l 1
 526.677900216 248.44555497 l 2
 536.424374565 244.838093685 543 235.228365658 543 225 c 2
 543 215 l 2
 543 198.451014475 526.087940517 185.348906577 509.322099784 191.55444503 c 2
 389 236.089248197 l 1
 389 185.471628061 l 1
 678.592838924 79.4768634879 l 2
 688.3566341 75.9031868223 695 66.3318300066 695 56 c 2
 695 46 l 2
 695 29.4857623923 678.156527759 16.3926493601 661.407161076 22.5231365121 c 2
 389 122.227718344 l 1
 389 62.7423181042 l 1
 679.518745131 -56.8830475381 l 2
 705.180616572 -67.4497004843 694.70910733 -105 670 -105 c 2
 354 -105 l 2
 338.867462144 -105 329 -90.7299043327 329 -80 c 2
 329 700 l 2
 329 715.132537856 343.270095667 725 354 725 c 2
EndSplineSet
EndChar

StartChar: L
Encoding: 76 76 16
Width: 1024
VWidth: 0
Flags: HW
LayerCount: 2
Fore
SplineSet
354 725 m 2
 364 725 l 2
 379.132537856 725 389 710.729904333 389 700 c 2
 389 185.510681615 l 1
 526.543576577 135.494835587 l 2
 536.317126752 131.940817342 543 122.391922869 543 112 c 2
 543 102 l 2
 543 85.5057981227 526.196085982 72.4180143914 509.456423423 78.5051644128 c 2
 389 122.307500203 l 1
 389 62.7423181042 l 1
 679.518745131 -56.8830475381 l 2
 705.180616572 -67.4497004843 694.70910733 -105 670 -105 c 2
 354 -105 l 2
 338.867462144 -105 329 -90.7299043327 329 -80 c 2
 329 700 l 2
 329 715.132537856 343.270095667 725 354 725 c 2
EndSplineSet
EndChar

StartChar: K
Encoding: 75 75 17
Width: 1024
VWidth: 0
Flags: HW
LayerCount: 2
Fore
SplineSet
354 725 m 2
 364 725 l 2
 379.132537856 725 389 710.729904333 389 700 c 2
 389 62.7423181042 l 1
 679.518745131 -56.8830475381 l 2
 705.180616572 -67.4497004843 694.70910733 -105 670 -105 c 2
 354 -105 l 2
 338.867462144 -105 329 -90.7299043327 329 -80 c 2
 329 700 l 2
 329 715.132537856 343.270095667 725 354 725 c 2
EndSplineSet
EndChar

StartChar: J
Encoding: 74 74 18
Width: 1024
VWidth: 0
Flags: HW
LayerCount: 2
Fore
SplineSet
354 725 m 2
 364 725 l 2
 379.132537856 725 389 710.729904333 389 700 c 2
 389 627.579307548 l 1
 525.4570959 578.52610314 l 2
 535.865010118 574.784696068 542 563.813450058 542 555 c 2
 542 545 l 2
 542 528.540814655 525.265240334 515.462599521 508.5429041 521.47389686 c 2
 389 564.446836243 l 1
 389 521.579307548 l 1
 678.4570959 417.52610314 l 2
 688.865010118 413.784696068 695 402.813450058 695 394 c 2
 695 384 l 2
 695 367.540814655 678.265240334 354.462599521 661.5429041 360.47389686 c 2
 389 458.446836243 l 1
 389 411.471628061 l 1
 678.592838924 305.476863488 l 2
 688.3566341 301.903186822 695 292.331830007 695 282 c 2
 695 272 l 2
 695 255.485762392 678.156527759 242.39264936 661.407161076 248.523136512 c 2
 389 348.227718344 l 1
 389 299.364832989 l 1
 678.727725579 191.427052871 l 2
 688.463774634 187.799897341 695 178.167935523 695 168 c 2
 695 158 l 2
 695 141.430571082 678.04759944 128.32331624 661.272274421 134.572947129 c 2
 389 236.007716031 l 1
 389 185.471628061 l 1
 678.592838924 79.4768634879 l 2
 688.3566341 75.9031868223 695 66.3318300066 695 56 c 2
 695 46 l 2
 695 29.4857623923 678.156527759 16.3926493601 661.407161076 22.5231365121 c 2
 389 122.227718344 l 1
 389 46 l 2
 389 30.8674621445 374.729904333 21 364 21 c 2
 354 21 l 2
 338.867462144 21 329 35.2700956673 329 46 c 2
 329 700 l 2
 329 715.132537856 343.270095667 725 354 725 c 2
EndSplineSet
EndChar

StartChar: I
Encoding: 73 73 19
Width: 1024
VWidth: 0
Flags: HW
LayerCount: 2
Fore
SplineSet
354 725 m 2
 364 725 l 2
 379.132537856 725 389 710.729904333 389 700 c 2
 389 521.579307548 l 1
 678.4570959 417.52610314 l 2
 688.865010118 413.784696068 695 402.813450058 695 394 c 2
 695 384 l 2
 695 367.540814655 678.265240334 354.462599521 661.5429041 360.47389686 c 2
 389 458.446836243 l 1
 389 411.471628061 l 1
 678.592838924 305.476863488 l 2
 688.3566341 301.903186822 695 292.331830007 695 282 c 2
 695 272 l 2
 695 255.485762392 678.156527759 242.39264936 661.407161076 248.523136512 c 2
 389 348.227718344 l 1
 389 299.364832989 l 1
 678.727725579 191.427052871 l 2
 688.463774634 187.799897341 695 178.167935523 695 168 c 2
 695 158 l 2
 695 141.430571082 678.04759944 128.32331624 661.272274421 134.572947129 c 2
 389 236.007716031 l 1
 389 185.471628061 l 1
 678.592838924 79.4768634879 l 2
 688.3566341 75.9031868223 695 66.3318300066 695 56 c 2
 695 46 l 2
 695 29.4857623923 678.156527759 16.3926493601 661.407161076 22.5231365121 c 2
 389 122.227718344 l 1
 389 46 l 2
 389 30.8674621445 374.729904333 21 364 21 c 2
 354 21 l 2
 338.867462144 21 329 35.2700956673 329 46 c 2
 329 700 l 2
 329 715.132537856 343.270095667 725 354 725 c 2
EndSplineSet
EndChar

StartChar: H
Encoding: 72 72 20
Width: 1024
VWidth: 0
Flags: HW
LayerCount: 2
Fore
SplineSet
354 725 m 2
 364 725 l 2
 379.132537856 725 389 710.729904333 389 700 c 2
 389 521.617979906 l 1
 526.408409925 472.54354779 l 2
 536.828455385 468.822102983 543 457.872741814 543 449 c 2
 543 439 l 2
 543 422.560440172 526.304008823 409.487731229 509.591590075 415.45645221 c 2
 389 458.524877237 l 1
 389 411.471628061 l 1
 678.592838924 305.476863488 l 2
 688.3566341 301.903186822 695 292.331830007 695 282 c 2
 695 272 l 2
 695 255.485762392 678.156527759 242.39264936 661.407161076 248.523136512 c 2
 389 348.227718344 l 1
 389 299.364832989 l 1
 678.727725579 191.427052871 l 2
 688.463774634 187.799897341 695 178.167935523 695 168 c 2
 695 158 l 2
 695 141.430571082 678.04759944 128.32331624 661.272274421 134.572947129 c 2
 389 236.007716031 l 1
 389 185.471628061 l 1
 678.592838924 79.4768634879 l 2
 688.3566341 75.9031868223 695 66.3318300066 695 56 c 2
 695 46 l 2
 695 29.4857623923 678.156527759 16.3926493601 661.407161076 22.5231365121 c 2
 389 122.227718344 l 1
 389 46 l 2
 389 30.8674621445 374.729904333 21 364 21 c 2
 354 21 l 2
 338.867462144 21 329 35.2700956673 329 46 c 2
 329 700 l 2
 329 715.132537856 343.270095667 725 354 725 c 2
EndSplineSet
EndChar

StartChar: G
Encoding: 71 71 21
Width: 1024
VWidth: 0
Flags: HW
LayerCount: 2
Fore
SplineSet
354 725 m 2
 364 725 l 2
 379.132537856 725 389 710.729904333 389 700 c 2
 389 411.471628061 l 1
 678.592838924 305.476863488 l 2
 688.3566341 301.903186822 695 292.331830007 695 282 c 2
 695 272 l 2
 695 255.485762392 678.156527759 242.39264936 661.407161076 248.523136512 c 2
 389 348.227718344 l 1
 389 299.364832989 l 1
 678.727725579 191.427052871 l 2
 688.463774634 187.799897341 695 178.167935523 695 168 c 2
 695 158 l 2
 695 141.430571082 678.04759944 128.32331624 661.272274421 134.572947129 c 2
 389 236.007716031 l 1
 389 185.471628061 l 1
 678.592838924 79.4768634879 l 2
 688.3566341 75.9031868223 695 66.3318300066 695 56 c 2
 695 46 l 2
 695 29.4857623923 678.156527759 16.3926493601 661.407161076 22.5231365121 c 2
 389 122.227718344 l 1
 389 46 l 2
 389 30.8674621445 374.729904333 21 364 21 c 2
 354 21 l 2
 338.867462144 21 329 35.2700956673 329 46 c 2
 329 700 l 2
 329 715.132537856 343.270095667 725 354 725 c 2
EndSplineSet
EndChar

StartChar: F
Encoding: 70 70 22
Width: 1024
VWidth: 0
Flags: HW
LayerCount: 2
Fore
SplineSet
354 725 m 2
 364 725 l 2
 379.132537856 725 389 710.729904333 389 700 c 2
 389 411.404258296 l 1
 526.677900216 360.44555497 l 2
 536.424374565 356.838093685 543 347.228365658 543 337 c 2
 543 327 l 2
 543 310.451014475 526.087940517 297.348906577 509.322099784 303.55444503 c 2
 389 348.089248197 l 1
 389 299.364832989 l 1
 678.727725579 191.427052871 l 2
 688.463774634 187.799897341 695 178.167935523 695 168 c 2
 695 158 l 2
 695 141.430571082 678.04759944 128.32331624 661.272274421 134.572947129 c 2
 389 236.007716031 l 1
 389 185.471628061 l 1
 678.592838924 79.4768634879 l 2
 688.3566341 75.9031868223 695 66.3318300066 695 56 c 2
 695 46 l 2
 695 29.4857623923 678.156527759 16.3926493601 661.407161076 22.5231365121 c 2
 389 122.227718344 l 1
 389 46 l 2
 389 30.8674621445 374.729904333 21 364 21 c 2
 354 21 l 2
 338.867462144 21 329 35.2700956673 329 46 c 2
 329 700 l 2
 329 715.132537856 343.270095667 725 354 725 c 2
EndSplineSet
EndChar

StartChar: E
Encoding: 69 69 23
Width: 1024
VWidth: 0
Flags: HW
LayerCount: 2
Fore
SplineSet
354 725 m 2
 364 725 l 2
 379.132537856 725 389 710.729904333 389 700 c 2
 389 299.364832989 l 1
 678.727725579 191.427052871 l 2
 688.463774634 187.799897341 695 178.167935523 695 168 c 2
 695 158 l 2
 695 141.430571082 678.04759944 128.32331624 661.272274421 134.572947129 c 2
 389 236.007716031 l 1
 389 185.471628061 l 1
 678.592838924 79.4768634879 l 2
 688.3566341 75.9031868223 695 66.3318300066 695 56 c 2
 695 46 l 2
 695 29.4857623923 678.156527759 16.3926493601 661.407161076 22.5231365121 c 2
 389 122.227718344 l 1
 389 46 l 2
 389 30.8674621445 374.729904333 21 364 21 c 2
 354 21 l 2
 338.867462144 21 329 35.2700956673 329 46 c 2
 329 700 l 2
 329 715.132537856 343.270095667 725 354 725 c 2
EndSplineSet
EndChar

StartChar: D
Encoding: 68 68 24
Width: 1024
VWidth: 0
Flags: HW
LayerCount: 2
Fore
SplineSet
354 725 m 2
 364 725 l 2
 379.132537856 725 389 710.729904333 389 700 c 2
 389 299.404258296 l 1
 526.677900216 248.44555497 l 2
 536.424374565 244.838093685 543 235.228365658 543 225 c 2
 543 215 l 2
 543 198.451014475 526.087940517 185.348906577 509.322099784 191.55444503 c 2
 389 236.089248197 l 1
 389 185.471628061 l 1
 678.592838924 79.4768634879 l 2
 688.3566341 75.9031868223 695 66.3318300066 695 56 c 2
 695 46 l 2
 695 29.4857623923 678.156527759 16.3926493601 661.407161076 22.5231365121 c 2
 389 122.227718344 l 1
 389 46 l 2
 389 30.8674621445 374.729904333 21 364 21 c 2
 354 21 l 2
 338.867462144 21 329 35.2700956673 329 46 c 2
 329 700 l 2
 329 715.132537856 343.270095667 725 354 725 c 2
EndSplineSet
EndChar

StartChar: C
Encoding: 67 67 25
Width: 1024
VWidth: 0
Flags: HW
LayerCount: 2
Fore
SplineSet
354 725 m 2
 364 725 l 2
 379.132537856 725 389 710.729904333 389 700 c 2
 389 185.471628061 l 1
 678.592838924 79.4768634879 l 2
 688.3566341 75.9031868223 695 66.3318300066 695 56 c 2
 695 46 l 2
 695 29.4857623923 678.156527759 16.3926493601 661.407161076 22.5231365121 c 2
 389 122.227718344 l 1
 389 46 l 2
 389 30.8674621445 374.729904333 21 364 21 c 2
 354 21 l 2
 338.867462144 21 329 35.2700956673 329 46 c 2
 329 700 l 2
 329 715.132537856 343.270095667 725 354 725 c 2
EndSplineSet
EndChar

StartChar: bracketleft
Encoding: 91 91 26
Width: 1024
VWidth: 0
Flags: HW
LayerCount: 2
Fore
SplineSet
354 725 m 2
 364 725 l 2
 379.132537856 725 389 710.729904333 389 700 c 2
 389 411.451953667 l 1
 677.617669366 305.467760326 l 2
 687.376470706 301.884200489 694 292.301588508 694 282 c 2
 694 272 l 2
 694 255.475638968 677.136543182 242.3798731 660.382330634 248.532239674 c 2
 389 348.187390596 l 1
 389 299.344972198 l 1
 677.752838431 191.417681768 l 2
 687.483554949 187.78062707 694 178.1375266 694 168 c 2
 694 158 l 2
 694 141.420242201 677.027220577 128.310427324 660.247161569 134.582318232 c 2
 389 235.966503212 l 1
 389 185.451953667 l 1
 677.617669366 79.4677603257 l 2
 687.376470706 75.8842004894 694 66.3015885078 694 56 c 2
 694 46 l 2
 694 29.4756389684 677.136543182 16.3798730996 660.382330634 22.5322396743 c 2
 389 122.187390596 l 1
 389 62.7423181042 l 1
 679.518745131 -56.8830475381 l 2
 705.180616572 -67.4497004843 694.70910733 -105 670 -105 c 2
 490.924198895 -105 l 1
 678.480585437 -181.867371533 l 2
 704.153085482 -192.388887946 693.777955134 -230 669 -230 c 2
 354 -230 l 2
 338.867462144 -230 329 -215.729904333 329 -205 c 0
 329 96.6666666667 329 398.333333333 329 700 c 0
 329 715.132537856 343.270095667 725 354 725 c 2
EndSplineSet
EndChar

StartChar: backslash
Encoding: 92 92 27
Width: 1024
VWidth: 0
Flags: HW
LayerCount: 2
Fore
SplineSet
354 725 m 2
 364 725 l 2
 379.132537856 725 389 710.729904333 389 700 c 2
 389 521.579307548 l 1
 525.4570959 472.52610314 l 2
 535.865010118 468.784696068 542 457.813450058 542 449 c 2
 542 439 l 2
 542 422.540814655 525.265240334 409.462599521 508.5429041 415.47389686 c 2
 389 458.446836243 l 1
 389 411.451953667 l 1
 677.617669366 305.467760326 l 2
 687.376470706 301.884200489 694 292.301588508 694 282 c 2
 694 272 l 2
 694 255.475638968 677.136543182 242.3798731 660.382330634 248.532239674 c 2
 389 348.187390596 l 1
 389 299.344972198 l 1
 677.752838431 191.417681768 l 2
 687.483554949 187.78062707 694 178.1375266 694 168 c 2
 694 158 l 2
 694 141.420242201 677.027220577 128.310427324 660.247161569 134.582318232 c 2
 389 235.966503212 l 1
 389 185.451953667 l 1
 677.617669366 79.4677603257 l 2
 687.376470706 75.8842004894 694 66.3015885078 694 56 c 2
 694 46 l 2
 694 29.4756389684 677.136543182 16.3798730996 660.382330634 22.5322396743 c 2
 389 122.187390596 l 1
 389 62.7423181042 l 1
 679.518745131 -56.8830475381 l 2
 705.180616572 -67.4497004843 694.70910733 -105 670 -105 c 2
 490.924198895 -105 l 1
 678.480585437 -181.867371533 l 2
 704.153085482 -192.388887946 693.777955134 -230 669 -230 c 2
 354 -230 l 2
 338.867462144 -230 329 -215.729904333 329 -205 c 0
 329 96.6666666667 329 398.333333333 329 700 c 0
 329 715.132537856 343.270095667 725 354 725 c 2
EndSplineSet
EndChar

StartChar: bracketright
Encoding: 93 93 28
Width: 1024
VWidth: 0
Flags: HW
LayerCount: 2
Fore
SplineSet
354 725 m 2
 364 725 l 2
 379.132537856 725 389 710.729904333 389 700 c 2
 389 521.559824323 l 1
 677.481637156 417.51726666 l 2
 687.88336094 413.765825295 694 402.783612851 694 394 c 2
 694 384 l 2
 694 367.530898017 677.24565358 354.44993996 660.518362844 360.48273334 c 2
 389 458.407388792 l 1
 389 411.451953667 l 1
 677.617669366 305.467760326 l 2
 687.376470706 301.884200489 694 292.301588508 694 282 c 2
 694 272 l 2
 694 255.475638968 677.136543182 242.3798731 660.382330634 248.532239674 c 2
 389 348.187390596 l 1
 389 299.344972198 l 1
 677.752838431 191.417681768 l 2
 687.483554949 187.78062707 694 178.1375266 694 168 c 2
 694 158 l 2
 694 141.420242201 677.027220577 128.310427324 660.247161569 134.582318232 c 2
 389 235.966503212 l 1
 389 185.451953667 l 1
 677.617669366 79.4677603257 l 2
 687.376470706 75.8842004894 694 66.3015885078 694 56 c 2
 694 46 l 2
 694 29.4756389684 677.136543182 16.3798730996 660.382330634 22.5322396743 c 2
 389 122.187390596 l 1
 389 62.7423181042 l 1
 679.518745131 -56.8830475381 l 2
 705.180616572 -67.4497004843 694.70910733 -105 670 -105 c 2
 490.924198895 -105 l 1
 678.480585437 -181.867371533 l 2
 704.153085482 -192.388887946 693.777955134 -230 669 -230 c 2
 354 -230 l 2
 338.867462144 -230 329 -215.729904333 329 -205 c 0
 329 96.6666666667 329 398.333333333 329 700 c 0
 329 715.132537856 343.270095667 725 354 725 c 2
EndSplineSet
EndChar

StartChar: asciicircum
Encoding: 94 94 29
Width: 1024
VWidth: 0
Flags: HW
LayerCount: 2
Fore
SplineSet
354 725 m 2
 364 725 l 2
 379.132537856 725 389 710.729904333 389 700 c 2
 389 627.579307548 l 1
 525.4570959 578.52610314 l 2
 535.865010118 574.784696068 542 563.813450058 542 555 c 2
 542 545 l 2
 542 528.540814655 525.265240334 515.462599521 508.5429041 521.47389686 c 2
 389 564.446836243 l 1
 389 521.559824323 l 1
 677.481637156 417.51726666 l 2
 687.88336094 413.765825295 694 402.783612851 694 394 c 2
 694 384 l 2
 694 367.530898017 677.24565358 354.44993996 660.518362844 360.48273334 c 2
 389 458.407388792 l 1
 389 411.451953667 l 1
 677.617669366 305.467760326 l 2
 687.376470706 301.884200489 694 292.301588508 694 282 c 2
 694 272 l 2
 694 255.475638968 677.136543182 242.3798731 660.382330634 248.532239674 c 2
 389 348.187390596 l 1
 389 299.344972198 l 1
 677.752838431 191.417681768 l 2
 687.483554949 187.78062707 694 178.1375266 694 168 c 2
 694 158 l 2
 694 141.420242201 677.027220577 128.310427324 660.247161569 134.582318232 c 2
 389 235.966503212 l 1
 389 185.451953667 l 1
 677.617669366 79.4677603257 l 2
 687.376470706 75.8842004894 694 66.3015885078 694 56 c 2
 694 46 l 2
 694 29.4756389684 677.136543182 16.3798730996 660.382330634 22.5322396743 c 2
 389 122.187390596 l 1
 389 62.7423181042 l 1
 679.518745131 -56.8830475381 l 2
 705.180616572 -67.4497004843 694.70910733 -105 670 -105 c 2
 490.924198895 -105 l 1
 678.480585437 -181.867371533 l 2
 704.153085482 -192.388887946 693.777955134 -230 669 -230 c 2
 354 -230 l 2
 338.867462144 -230 329 -215.729904333 329 -205 c 0
 329 96.6666666667 329 398.333333333 329 700 c 0
 329 715.132537856 343.270095667 725 354 725 c 2
EndSplineSet
EndChar

StartChar: a
Encoding: 97 97 30
Width: 1024
VWidth: 0
Flags: HW
LayerCount: 2
Fore
SplineSet
354 725 m 2
 364 725 l 2
 379.132537856 725 389 710.729904333 389 700 c 2
 389 411.451953667 l 1
 677.617669366 305.467760326 l 2
 687.376470706 301.884200489 694 292.301588508 694 282 c 2
 694 272 l 2
 694 255.475638968 677.136543182 242.3798731 660.382330634 248.532239674 c 2
 389 348.187390596 l 1
 389 299.344972198 l 1
 677.752838431 191.417681768 l 2
 687.483554949 187.78062707 694 178.1375266 694 168 c 2
 694 158 l 2
 694 141.420242201 677.027220577 128.310427324 660.247161569 134.582318232 c 2
 389 235.966503212 l 1
 389 185.451953667 l 1
 677.617669366 79.4677603257 l 2
 687.376470706 75.8842004894 694 66.3015885078 694 56 c 2
 694 46 l 2
 694 29.4756389684 677.136543182 16.3798730996 660.382330634 22.5322396743 c 2
 389 122.187390596 l 1
 389 62.7423181042 l 1
 679.518745131 -56.8830475381 l 2
 705.180616572 -67.4497004843 694.70910733 -105 670 -105 c 2
 490.924198895 -105 l 1
 678.480585437 -181.867371533 l 2
 704.153085482 -192.388887946 693.777955134 -230 669 -230 c 2
 354 -230 l 2
 338.867462144 -230 329 -215.729904333 329 -205 c 0
 329 96.6666666667 329 398.333333333 329 700 c 0
 329 715.132537856 343.270095667 725 354 725 c 2
EndSplineSet
EndChar

StartChar: b
Encoding: 98 98 31
Width: 1024
VWidth: 0
Flags: HW
LayerCount: 2
Fore
SplineSet
354 725 m 2
 364 725 l 2
 379.132537856 725 389 710.729904333 389 700 c 2
 389 521.579307548 l 1
 525.4570959 472.52610314 l 2
 535.865010118 468.784696068 542 457.813450058 542 449 c 2
 542 439 l 2
 542 422.540814655 525.265240334 409.462599521 508.5429041 415.47389686 c 2
 389 458.446836243 l 1
 389 411.451953667 l 1
 677.617669366 305.467760326 l 2
 687.376470706 301.884200489 694 292.301588508 694 282 c 2
 694 272 l 2
 694 255.475638968 677.136543182 242.3798731 660.382330634 248.532239674 c 2
 389 348.187390596 l 1
 389 299.344972198 l 1
 677.752838431 191.417681768 l 2
 687.483554949 187.78062707 694 178.1375266 694 168 c 2
 694 158 l 2
 694 141.420242201 677.027220577 128.310427324 660.247161569 134.582318232 c 2
 389 235.966503212 l 1
 389 185.451953667 l 1
 677.617669366 79.4677603257 l 2
 687.376470706 75.8842004894 694 66.3015885078 694 56 c 2
 694 46 l 2
 694 29.4756389684 677.136543182 16.3798730996 660.382330634 22.5322396743 c 2
 389 122.187390596 l 1
 389 62.7423181042 l 1
 679.518745131 -56.8830475381 l 2
 705.180616572 -67.4497004843 694.70910733 -105 670 -105 c 2
 490.924198895 -105 l 1
 678.480585437 -181.867371533 l 2
 704.153085482 -192.388887946 693.777955134 -230 669 -230 c 2
 354 -230 l 2
 338.867462144 -230 329 -215.729904333 329 -205 c 0
 329 96.6666666667 329 398.333333333 329 700 c 0
 329 715.132537856 343.270095667 725 354 725 c 2
EndSplineSet
EndChar

StartChar: c
Encoding: 99 99 32
Width: 1024
VWidth: 0
Flags: HW
LayerCount: 2
Fore
SplineSet
354 725 m 2
 364 725 l 2
 379.132537856 725 389 710.729904333 389 700 c 2
 389 521.559824323 l 1
 677.481637156 417.51726666 l 2
 687.88336094 413.765825295 694 402.783612851 694 394 c 2
 694 384 l 2
 694 367.530898017 677.24565358 354.44993996 660.518362844 360.48273334 c 2
 389 458.407388792 l 1
 389 411.451953667 l 1
 677.617669366 305.467760326 l 2
 687.376470706 301.884200489 694 292.301588508 694 282 c 2
 694 272 l 2
 694 255.475638968 677.136543182 242.3798731 660.382330634 248.532239674 c 2
 389 348.187390596 l 1
 389 299.344972198 l 1
 677.752838431 191.417681768 l 2
 687.483554949 187.78062707 694 178.1375266 694 168 c 2
 694 158 l 2
 694 141.420242201 677.027220577 128.310427324 660.247161569 134.582318232 c 2
 389 235.966503212 l 1
 389 185.451953667 l 1
 677.617669366 79.4677603257 l 2
 687.376470706 75.8842004894 694 66.3015885078 694 56 c 2
 694 46 l 2
 694 29.4756389684 677.136543182 16.3798730996 660.382330634 22.5322396743 c 2
 389 122.187390596 l 1
 389 62.7423181042 l 1
 679.518745131 -56.8830475381 l 2
 705.180616572 -67.4497004843 694.70910733 -105 670 -105 c 2
 490.924198895 -105 l 1
 678.480585437 -181.867371533 l 2
 704.153085482 -192.388887946 693.777955134 -230 669 -230 c 2
 354 -230 l 2
 338.867462144 -230 329 -215.729904333 329 -205 c 0
 329 96.6666666667 329 398.333333333 329 700 c 0
 329 715.132537856 343.270095667 725 354 725 c 2
EndSplineSet
EndChar

StartChar: d
Encoding: 100 100 33
Width: 1024
VWidth: 0
Flags: HMW
LayerCount: 2
Fore
SplineSet
354 725 m 2
 364 725 l 2
 379.132537856 725 389 710.729904333 389 700 c 2
 389 627.579307548 l 1
 525.4570959 578.52610314 l 2
 535.865010118 574.784696068 542 563.813450058 542 555 c 2
 542 545 l 2
 542 528.540814655 525.265240334 515.462599521 508.5429041 521.47389686 c 2
 389 564.446836243 l 1
 389 521.567960666 l 1
 677.888379661 417.520960743 l 2
 688.292695025 413.773707907 694.416992188 402.796070309 694.416992188 394 c 2
 694.416992188 384 l 2
 694.416992188 367.535041665 677.670829832 354.455226535 660.945604714 360.479039257 c 2
 389 458.423872988 l 1
 389 411.460169772 l 1
 678.024291202 305.471565855 l 2
 687.785184459 301.892131597 694.416992188 292.314214858 694.416992188 282 c 2
 694.416992188 272 l 2
 694.416992188 255.479868981 677.561885563 242.38520834 660.809693173 248.528434145 c 2
 389 348.204242676 l 1
 389 299.353266071 l 1
 678.159342432 191.421599266 l 2
 687.892292392 187.78867666 694.416992188 178.150222665 694.416992188 168 c 2
 694.416992188 158 l 2
 694.416992188 141.424558019 677.452727605 128.315809541 660.674641943 134.578400734 c 2
 389 235.983725171 l 1
 389 185.460169772 l 1
 678.024291202 79.4715658549 l 2
 687.785184459 75.8921315969 694.416992188 66.3142148583 694.416992188 56 c 2
 694.416992188 46 l 2
 694.416992188 29.4798689805 677.561885563 16.3852083402 660.809693173 22.5284341451 c 2
 389 122.204242676 l 1
 389 62.7423181042 l 1
 679.518745131 -56.8830475381 l 2
 705.180616572 -67.4497004843 694.70910733 -105 670 -105 c 2
 491.343593189 -105 l 1
 678.897681585 -181.867414141 l 2
 704.570152835 -192.389053506 694.194759718 -230 669.416992188 -230 c 2
 354 -230 l 2
 338.867462144 -230 329 -215.729904333 329 -205 c 0
 329 96.6666666667 329 398.333333333 329 700 c 0
 329 715.132537856 343.270095667 725 354 725 c 2
EndSplineSet
EndChar

